<svg width="58" height="63" viewBox="0 0 58 63" fill="none" xmlns="http://www.w3.org/2000/svg">
<path d="M28.2035 16.5782C29.4444 16.0614 30.4041 15.0129 30.8717 13.6634C31.3392 12.3139 31.2763 10.7739 30.6966 9.38213C30.117 7.9904 29.0682 6.86096 27.781 6.24227C26.4937 5.62359 25.0735 5.56634 23.8326 6.08311C22.5918 6.59989 21.632 7.64836 21.1645 8.99788C20.6969 10.3474 20.7599 11.8874 21.3395 13.2791C21.9191 14.6709 22.9679 15.8003 24.2552 16.419C25.5424 17.0377 26.9627 17.0949 28.2035 16.5782Z" fill="#E0FED6" stroke="#E0FED6" stroke-width="6" stroke-miterlimit="2"/>
<path d="M52.2145 45.1953C51.9332 45.4766 51.5516 45.6346 51.1538 45.6346C50.756 45.6346 50.3745 45.4766 50.0931 45.1953C49.8118 44.914 49.6538 44.5325 49.6538 44.1346C49.6538 43.7368 49.8118 43.3553 50.0931 43.074C50.3745 42.7927 50.756 42.6346 51.1538 42.6346C51.5516 42.6346 51.9332 42.7927 52.2145 43.074C52.4958 43.3553 52.6538 43.7368 52.6538 44.1346C52.6538 44.5325 52.4958 44.914 52.2145 45.1953Z" fill="#E0FED6" stroke="#E0FED6" stroke-width="5"/>
<path d="M24.6812 21.5403L24.1188 31.7377L33.5902 35.207C33.9852 35.3381 34.3352 35.5987 34.6186 35.9363L41.8422 45.2926M24.1188 31.7377L22.3211 41.8954C22.1612 42.9349 21.3379 43.6473 20.3527 43.6019L11.3329 43.2204" fill="#E0FED6"/>
<path d="M24.6812 21.5403L24.1188 31.7377M24.1188 31.7377L33.5902 35.207C33.9852 35.3381 34.3352 35.5987 34.6186 35.9363L41.8422 45.2926M24.1188 31.7377L22.3211 41.8954C22.1612 42.9349 21.3379 43.6473 20.3527 43.6019L11.3329 43.2204" stroke="#E0FED6" stroke-width="6" stroke-miterlimit="2" stroke-linecap="round" stroke-linejoin="round"/>
<path d="M43.6066 27.8673L36.3836 27.5578C36.0122 27.5418 35.6368 27.4252 35.2988 27.2097L31.9081 25.043C27.6686 22.2369 23.069 20.2417 18.3179 19.1223L14.9706 18.3423C14.5028 18.2329 14.0213 18.3016 13.6181 18.53L7.31832 21.8449" fill="#E0FED6"/>
<path d="M43.6066 27.8673L36.3836 27.5578C36.0122 27.5418 35.6368 27.4252 35.2988 27.2097L31.9081 25.043C27.6686 22.2369 23.069 20.2417 18.3179 19.1223L14.9706 18.3423C14.5028 18.2329 14.0213 18.3016 13.6181 18.53L7.31832 21.8449" stroke="#E0FED6" stroke-width="6" stroke-miterlimit="2" stroke-linecap="round" stroke-linejoin="round"/>
</svg>
